<?xml version="1.0" standalone="no"?><!DOCTYPE svg PUBLIC "-//W3C//DTD SVG 1.1//EN" "http://www.w3.org/Graphics/SVG/1.1/DTD/svg11.dtd"><svg t="1565080636587" class="icon" viewBox="0 0 1024 1024" version="1.1" xmlns="http://www.w3.org/2000/svg" p-id="2168" xmlns:xlink="http://www.w3.org/1999/xlink" width="200" height="200"><defs><style type="text/css"></style></defs><path d="M612 903.62c2.027-134.137 7.955-217.677 17.784-250.62 10.092-33.826 29.55-42.656 45.965-47.836 60.597-19.121 131.162-53.327 131.162-110.24 0-37.942-2.234-107.25-6.701-207.924h13.361c17.159 109.142 23.038 186.268 17.639 231.378C823.11 586.043 710.378 622 693.19 632c-11.457 6.667-18.203 23.695-20.237 51.084 31.075 9.838 54.465 14.757 70.17 14.757 15.704 0 36.967-4.919 63.787-14.757l6.299 10.244c-29.677 17.494-53.039 26.548-70.087 27.163-17.048 0.615-39.506-1.224-67.374-5.518L680 905l-68-1.38z" fill="#440606" p-id="2169"></path><path d="M649.95 649.63c-21.399-19.047-34.065-41.576-38-67.587-3.934-26.011-3.934-44.025 0-54.043l13.21 4c1.707 25.222 4.232 43.733 7.574 55.533 3.343 11.8 13.485 25.288 30.426 40.467l-13.21 21.63z" fill="#440606" p-id="2170"></path><path d="M800.34 213.1c1.828-2.603 3.7-2.734 5.616-0.394 14.423 17.574 23.59 29.965 27.5 37.173 5.866 10.812 2.954 37.929-22.125 39.682-25.08 1.754-32.864-12.597-33.864-26.892-1-14.294 20.132-45.666 22.874-49.57z" fill="#FFE4E2" p-id="2171"></path><path d="M802.618 211c-5.11 8.447-8.05 18.353-8.05 28.945 0 19.883 10.361 37.346 25.98 47.283-2.768 1.218-5.97 2.021-9.65 2.279-25.08 1.753-32.864-12.598-33.864-26.892-1-14.295 20.132-45.667 22.874-49.57 0.892-1.272 1.796-1.953 2.71-2.045z" fill="#FCDCDC" p-id="2172"></path><path d="M609.34 467.1c1.828-2.603 3.7-2.734 5.616-0.394 14.423 17.574 23.59 29.965 27.5 37.173 5.866 10.812 2.954 37.929-22.125 39.682-25.08 1.754-32.864-12.597-33.864-26.892-1-14.294 20.132-45.666 22.874-49.57z" fill="#FFE4E2" p-id="2173"></path><path d="M809.148 496.603c-82.744-29.719-126.465-76.634-131.162-140.747-4.697-64.113-6.63-96.398-5.798-96.856h10.049c4.775 66.203 14.468 111.848 29.08 136.937 14.61 25.09 47.221 43.756 97.831 56l6.66 12.989-6.66 31.677z" fill="#440606" p-id="2174"></path><path d="M612.618 465c-5.11 8.447-8.05 18.353-8.05 28.945 0 19.883 10.361 37.346 25.98 47.283-2.768 1.218-5.97 2.021-9.65 2.279-25.08 1.753-32.864-12.598-33.864-26.892-1-14.295 20.132-45.667 22.874-49.57 0.892-1.272 1.796-1.954 2.71-2.045z" fill="#FCDCDC" p-id="2175"></path><path d="M791.096 691.656l-9.347-0.84C774.048 690.125 768.366 683.321 769.057 675.62a14 14 0 0 1 0.114-0.92l0.871-5.55c1.2-7.638 8.365-12.857 16.003-11.657a14 14 0 0 1 3.41 0.991l8.797 3.825-1.509-8.993C795.464 645.69 800.61 638.472 808.235 637.193A14 14 0 0 1 810.55 637h3.966c7.732 0 14 6.268 14 14a14 14 0 0 1-0.135 1.933l-1.197 8.59 10.704-3.79a14 14 0 0 1 2.398-0.618c7.63-1.256 14.833 3.91 16.09 11.54l0.524 3.188a14 14 0 0 1 0.137 1.097c0.65 7.704-5.067 14.478-12.772 15.128l-3.203 0.271 4.363 3.406a14 14 0 0 1 1.059 0.915c5.59 5.341 5.791 14.203 0.45 19.793l-3.482 3.645a14 14 0 0 1-2.65 2.167c-6.54 4.127-15.185 2.171-19.312-4.368l-5.08-8.05-6.193 10.32c-3.979 6.63-12.579 8.78-19.208 4.801a14 14 0 0 1-0.841-0.546l-3.01-2.113c-6.328-4.443-7.857-13.174-3.414-19.502a14 14 0 0 1 2.033-2.309l5.32-4.842z" fill="#FF4242" p-id="2176"></path><path d="M814 681m-14 0a14 14 0 1 0 28 0 14 14 0 1 0-28 0Z" fill="#F23649" p-id="2177"></path><path d="M818 670m-2 0a2 2 0 1 0 4 0 2 2 0 1 0-4 0Z" fill="#FFFFFF" p-id="2178"></path><path d="M814.5 681.5m-2.5 0a2.5 2.5 0 1 0 5 0 2.5 2.5 0 1 0-5 0Z" fill="#FFFFFF" p-id="2179"></path><path d="M824.813 676.813m-1.258641-1.554292a2 2 0 1 0 2.517282 3.108584 2 2 0 1 0-2.517282-3.108584Z" fill="#FFFFFF" p-id="2180"></path><path d="M823.399 687.399m0.449902-1.94874a2 2 0 1 0-0.899804 3.89748 2 2 0 1 0 0.899804-3.89748Z" fill="#FFFFFF" p-id="2181"></path><path d="M814.674 692.674m1.797588-0.876742a2 2 0 1 0-3.595176 1.753484 2 2 0 1 0 3.595176-1.753484Z" fill="#FFFFFF" p-id="2182"></path><path d="M805.674 688.674m1.797588 0.876742a2 2 0 1 0-3.595176-1.753484 2 2 0 1 0 3.595176 1.753484Z" fill="#FFFFFF" p-id="2183"></path><path d="M802.399 679.399m0.449902 1.94874a2 2 0 1 0-0.899804-3.89748 2 2 0 1 0 0.899804 3.89748Z" fill="#FFFFFF" p-id="2184"></path><path d="M807.813 670.813m-1.258641 1.554292a2 2 0 1 0 2.517282-3.108584 2 2 0 1 0-2.517282 3.108584Z" fill="#FFFFFF" p-id="2185"></path><path d="M653.096 258.656l-9.347-0.84C636.048 257.125 630.366 250.321 631.057 242.62a14 14 0 0 1 0.114-0.92l0.871-5.55c1.2-7.638 8.365-12.857 16.003-11.657a14 14 0 0 1 3.41 0.991l8.797 3.825-1.509-8.993C657.464 212.69 662.61 205.472 670.235 204.193A14 14 0 0 1 672.55 204h3.966c7.732 0 14 6.268 14 14a14 14 0 0 1-0.135 1.933l-1.197 8.59 10.704-3.79a14 14 0 0 1 2.398-0.618c7.63-1.256 14.833 3.91 16.09 11.54l0.524 3.188a14 14 0 0 1 0.137 1.097c0.65 7.704-5.067 14.478-12.772 15.128l-3.203 0.271 4.363 3.406a14 14 0 0 1 1.059 0.915c5.59 5.341 5.791 14.203 0.45 19.793l-3.482 3.645a14 14 0 0 1-2.65 2.167c-6.54 4.127-15.185 2.171-19.312-4.368l-5.08-8.05-6.193 10.32c-3.979 6.63-12.579 8.78-19.208 4.801a14 14 0 0 1-0.841-0.546l-3.01-2.113c-6.328-4.443-7.857-13.174-3.414-19.502a14 14 0 0 1 2.033-2.309l5.32-4.842z" fill="#FF4242" p-id="2186"></path><path d="M676 248m-14 0a14 14 0 1 0 28 0 14 14 0 1 0-28 0Z" fill="#F23649" p-id="2187"></path><path d="M680 237m-2 0a2 2 0 1 0 4 0 2 2 0 1 0-4 0Z" fill="#FFFFFF" p-id="2188"></path><path d="M676.5 248.5m-2.5 0a2.5 2.5 0 1 0 5 0 2.5 2.5 0 1 0-5 0Z" fill="#FFFFFF" p-id="2189"></path><path d="M686.813 243.813m-1.258641-1.554292a2 2 0 1 0 2.517282 3.108584 2 2 0 1 0-2.517282-3.108584Z" fill="#FFFFFF" p-id="2190"></path><path d="M685.399 254.399m0.449902-1.94874a2 2 0 1 0-0.899804 3.89748 2 2 0 1 0 0.899804-3.89748Z" fill="#FFFFFF" p-id="2191"></path><path d="M676.674 259.674m1.797588-0.876742a2 2 0 1 0-3.595176 1.753484 2 2 0 1 0 3.595176-1.753484Z" fill="#FFFFFF" p-id="2192"></path><path d="M667.674 255.674m1.797588 0.876742a2 2 0 1 0-3.595176-1.753484 2 2 0 1 0 3.595176 1.753484Z" fill="#FFFFFF" p-id="2193"></path><path d="M664.399 246.399m0.449902 1.94874a2 2 0 1 0-0.899804-3.89748 2 2 0 1 0 0.899804 3.89748Z" fill="#FFFFFF" p-id="2194"></path><path d="M669.813 237.813m-1.258641 1.554292a2 2 0 1 0 2.517282-3.108584 2 2 0 1 0-2.517282 3.108584Z" fill="#FFFFFF" p-id="2195"></path><path d="M779.122 439.01L765.05 437.75C751.849 436.57 742.103 424.91 743.284 411.709a24 24 0 0 1 0.198-1.6l0.99-6.281c2.065-13.093 14.353-22.033 27.446-19.969a24 24 0 0 1 5.8 1.684l13.1 5.674-1.972-11.718C786.526 365.72 795.815 352.67 809.592 350.35a25.298 25.298 0 0 1 4.2-0.351C828.162 350 839.81 361.649 839.81 376.018c0 1.206-0.084 2.411-0.251 3.606l-1.444 10.313 16.313-5.755a23.973 23.973 0 0 1 4.065-1.044c13.063-2.16 25.403 6.68 27.563 19.742l0.423 2.561a24 24 0 0 1 0.237 1.901c1.112 13.209-8.695 24.817-21.903 25.929l-4.011 0.337 6.93 5.389a23 23 0 0 1 1.804 1.559c9.167 8.793 9.47 23.352 0.678 32.52l-5.44 5.67a23 23 0 0 1-4.29 3.51c-10.73 6.797-24.94 3.608-31.738-7.122l-8.244-13.014-11.174 18.552c-5.984 9.935-18.89 13.138-28.824 7.154a21 21 0 0 1-1.2-0.78l-8.44-5.903c-9.505-6.647-11.82-19.74-5.174-29.244a21 21 0 0 1 3.101-3.52l10.33-9.37z" fill="#FF4242" p-id="2196"></path><path d="M816 422m-23 0a23 23 0 1 0 46 0 23 23 0 1 0-46 0Z" fill="#F23649" p-id="2197"></path><path d="M822.5 403.5m-3.5 0a3.5 3.5 0 1 0 7 0 3.5 3.5 0 1 0-7 0Z" fill="#FFFFFF" p-id="2198"></path><path d="M817 422m-4 0a4 4 0 1 0 8 0 4 4 0 1 0-8 0Z" fill="#FFFFFF" p-id="2199"></path><path d="M831.881303 412.280836a3.257 3.257 0 1 0 4.099394 5.062328 3.257 3.257 0 1 0-4.099394-5.062328Z" fill="#FFFFFF" p-id="2200"></path><path d="M832.359441 428.871451a3.258 3.256 13 1 0-1.464882 6.345098 3.258 3.256 13 1 0 1.464882-6.345098Z" fill="#FFFFFF" p-id="2201"></path><path d="M820.341271 439.204787a3.256 3.258 64 1 0-5.856542 2.856426 3.256 3.258 64 1 0 5.856542-2.856426Z" fill="#FFFFFF" p-id="2202"></path><path d="M805.678271 435.549213a3.258 3.256 26 1 0-5.856542-2.856426 3.258 3.256 26 1 0 5.856542 2.856426Z" fill="#FFFFFF" p-id="2203"></path><path d="M798.146441 422.193549a3.256 3.258 77 1 0-1.464882-6.345098 3.256 3.258 77 1 0 1.464882 6.345098Z" fill="#FFFFFF" p-id="2204"></path><path d="M804.185303 407.575164a3.257 3.257 0 1 0 4.099394-5.062328 3.257 3.257 0 1 0-4.099394 5.062328Z" fill="#FFFFFF" p-id="2205"></path><path d="M345.605 170L525.21 349.605 345.605 529.21 166 349.605z" fill="#FC6275" p-id="2206"></path><path d="M345.605 184.142L180.142 349.605l165.463 165.463 165.463-165.463-165.463-165.463z m0-1.414l166.877 166.877-166.877 166.877-166.877-166.877 166.877-166.877z" fill="#FEE97D" p-id="2207"></path><path d="M330.527 390.986l6.762-0.966-2.898-18.354 7.245-8.855 65.205-3.059 7.889 8.694-6.118 43.631-6.118 6.762-51.359 8.533-8.855-6.118-2.576-16.261-6.762 1.127-2.415-15.134z m-54.096 3.703l33.971-53.613-30.107 3.22-1.61-15.295 31.717-3.22-21.252-20.125 10.465-11.109 22.379 21.252-9.338 9.66 11.914-1.288 7.245 11.914-13.202 20.769h0.644l-0.483 5.152 14.651 4.83-4.991 14.49-10.787-3.542-3.381 45.885-15.295-1.127 2.898-39.445-12.558 19.803-12.88-8.211z m65.688-41.86l-2.254-26.243 7.406-8.372 48.783-1.449 7.728 7.567v23.828l-6.762 7.567-46.69 4.025-8.211-6.923z m-11.753-50.393l80.5-6.762 1.449 14.973-80.5 7.084-1.449-15.295z m26.404 41.538l31.717-2.898v-8.855l-32.683 0.966 0.966 10.787z m21.091 54.901l-1.127 8.855 17.71-3.059 4.025-29.141-17.871 0.966-0.805 6.601 13.041-2.093 2.415 14.973-17.388 2.898z m-25.438-11.27l11.753-1.932 1.127-8.533-14.329 0.644 1.449 9.821z m3.703 23.506l4.991-0.805 1.127-8.855-7.406 1.127 1.288 8.533z" fill="#FEE97D" p-id="2208"></path></svg>